# xmcd
#
# Track frame offsets:
#	150
#	11559
#	40307
#	54939
#	68278
#	92428
#	105697
#	130904
#	152865
#	170464
#
# Disc length: 2585 seconds
#
# Revision: 1
# Processed by: cddbd v1.5.2PL0 Copyright (c) Steve Scherf et al.
# Submitted via: audiograbber 1.83.01
#
DISCID=720a170a
DTITLE=Steve Mann - Steve Mann Live at the Ash Grove
DYEAR=2008
DGENRE=Blues
TTITLE0=99 Year Blues
TTITLE1=Drown in My Own Tears
TTITLE2=Pallet on the Floor
TTITLE3=Buddy Brown's Blues
TTITLE4=Walking Blues
TTITLE5=Another Man Done Gone
TTITLE6=Titanic
TTITLE7=Parchmen Farm
TTITLE8=She Caught the Caty
TTITLE9=Green, Green Rocky Road
EXTD=
EXTT0=
EXTT1=
EXTT2=
EXTT3=
EXTT4=
EXTT5=
EXTT6=
EXTT7=
EXTT8=
EXTT9=
PLAYORDER=
